<svg version="1" xmlns="http://www.w3.org/2000/svg" width="933.333" height="933.333" viewBox="0 0 700.000000 700.000000"><path d="M102 113.2c-.1 8.7-.1 451.6 0 460.4v6.2l84.3-.3c46.3-.2 85.1-.5 86.2-.8 1.1-.2 5.2-.8 9-1.1 8.6-.8 14.2-1.5 17.5-2.1 1.4-.3 4.1-.7 6-1 1.9-.3 4.2-.8 5-1 .8-.2 3-.7 4.9-1 13.4-2.3 42.5-12.2 57.6-19.7 40.6-20 64.4-43.1 82-79.3 11.1-22.8 19.3-51.9 22-78.5.4-3 .8-6.6 1-7.9 2.5-14.8 2.5-79.7.1-92.8-.2-1-.7-4.5-1-7.8-.7-5.7-1.9-13.9-3.1-19.7-.3-1.6-.7-3.9-.9-5.3-.3-1.3-.7-2.8-.9-3.2-.3-.5-.8-2.4-1.1-4.3-1-6.1-6.3-23.2-10.1-32.5-5.7-14-14.8-30.1-22.9-40.5-6.8-8.6-23.3-23.2-35.1-31.1-12.4-8.3-34.4-19.7-45-23.4-2.7-.9-5.7-2-6.5-2.3-.8-.3-1.7-.6-2-.7-.3 0-3.4-1.1-7-2.3-14.6-4.9-46.5-11.5-62.2-12.7-3.5-.3-8.1-.8-10.3-1.1-2.2-.4-40.8-.8-85.7-1.1l-81.8-.5v7.4zm167 75.2c1.4.4 4.8.9 7.5 1.2 13.4 1.7 28.3 7.1 40.1 14.6 12 7.5 25.5 24.7 31.9 40.6 1.5 3.7 3.1 7.6 3.6 8.7 2.5 5.8 6.9 25.2 8.5 38 .3 2.2.7 5.1 1 6.5 2.3 14.2 2.2 72.5-.1 86.1-.2 1.3-.6 4.6-1 7.4-2.3 21.2-8 41.6-15.9 57.3-10.4 20.6-28.9 35.9-52.8 43.6-14.7 4.7-25.3 5.8-56.1 6l-21.7.1V187.2l26.3.3c14.4.2 27.3.6 28.7.9zM563.1 468.3c-21.7 2.5-41.9 18.1-49.9 38.7-9.1 23.5-2.2 52.4 16.6 69 7.2 6.3 19.6 12.4 28.5 14 10.4 1.9 25.6.8 34-2.4 17.5-6.6 31.7-21.5 37.6-39.2 3.6-10.9 3.5-28.3-.3-38.9-3.6-10.3-14-23.7-23.6-30.8-11.7-8.6-27-12.3-42.9-10.4z"/></svg>